<?xml version="1.0" encoding="UTF-8"?>
<svg width="179px" height="180px" viewBox="0 0 179 180" version="1.1" xmlns="http://www.w3.org/2000/svg" xmlns:xlink="http://www.w3.org/1999/xlink">
    <!-- Generator: Sketch 59.1 (86144) - https://sketch.com -->
    <title>Avatar6</title>
    <desc>Created with Sketch.</desc>
    <defs>
        <linearGradient x1="50%" y1="100%" x2="50%" y2="0.0043144361%" id="linearGradient-1">
            <stop stop-color="#808080" stop-opacity="0.25" offset="0%"></stop>
            <stop stop-color="#808080" stop-opacity="0.12" offset="54%"></stop>
            <stop stop-color="#808080" stop-opacity="0.1" offset="100%"></stop>
        </linearGradient>
    </defs>
    <g id="Page-1" stroke="none" stroke-width="1" fill="none" fill-rule="evenodd">
        <g id="Desktop-Copy" transform="translate(-787.000000, -1527.000000)" fill-rule="nonzero">
            <g id="Avatar6" transform="translate(787.000000, 1527.000000)">
                <g id="Group" opacity="0.5" fill="url(#linearGradient-1)">
                    <circle id="Oval" cx="89.5231466" cy="89.9243534" r="89.4151293"></circle>
                </g>
                <circle id="Oval" fill="#F5F5F5" cx="89.7006034" cy="89.3534052" r="87.5248276"></circle>
                <path d="M137.853147,97.9793534 C137.853147,127.097716 116.936379,141.425431 89.7700431,141.425431 C62.6037069,141.425431 39.4957328,127.097716 39.4957328,97.9793534 C39.4957328,68.8609914 61.515819,45.2592241 88.6744397,45.2592241 C115.83306,45.2592241 137.853147,68.8378448 137.853147,97.9793534 Z" id="Path" fill="#333333"></path>
                <path d="M89.7700431,177.225562 C106.876227,177.255087 123.612587,172.247865 137.891724,162.828276 C134.666638,145.206034 122.39125,144.195302 122.39125,144.195302 L54.7107328,144.195302 C54.7107328,144.195302 43.1374569,145.14431 39.5111638,161.362328 C54.2247049,171.711844 71.7811572,177.25315 89.7700431,177.225562 L89.7700431,177.225562 Z" id="Path" fill="#7BAD2C"></path>
                <path d="M75.2185776,122.676724 L102.292347,122.676724 L102.292347,144.334181 C102.298492,147.932723 100.871177,151.38554 98.3258957,153.929373 C95.7806146,156.473206 92.3269863,157.898557 88.7284483,157.89038 L88.7284483,157.89038 C85.1392689,157.89038 81.6970931,156.464549 79.15916,153.926616 C76.621227,151.388683 75.195431,147.946507 75.195431,144.357328 L75.195431,122.676724 L75.2185776,122.676724 Z" id="Path" fill="#000000" opacity="0.1"></path>
                <path d="M77.7955603,121.696853 L99.6999138,121.696853 C101.127403,121.696853 102.284612,122.854062 102.284612,124.281552 L102.284612,143.35431 C102.284612,146.947504 100.855644,150.393192 98.312703,152.931791 C95.7697616,155.470391 92.3216363,156.893473 88.7284483,156.887347 L88.7284483,156.887347 C85.1392689,156.887347 81.6970931,155.461532 79.15916,152.923599 C76.621227,150.385666 75.195431,146.94349 75.195431,143.35431 L75.195431,124.273836 C75.195431,123.588332 75.4677467,122.930903 75.9524716,122.446179 C76.4371966,121.961454 77.0946247,121.689138 77.7801293,121.689138 L77.7955603,121.696853 Z" id="Path" fill="#FDA57D"></path>
                <path d="M75.2725862,132.922931 C83.9978265,136.184004 93.6026509,136.211376 102.346336,133.000086 L102.346336,129.674698 L75.2725862,129.674698 L75.2725862,132.922931 Z" id="Path" fill="#000000" opacity="0.1"></path>
                <circle id="Oval" fill="#FDA57D" cx="88.8518966" cy="95.9270259" r="38.8013362"></circle>
                <path d="M44.1327586,98.465431 C44.1327586,98.465431 68.2977586,95.5335345 86.5681034,72.1092241 C86.5681034,72.1092241 110.733103,98.7123276 127.568362,95.780431 C127.568362,95.780431 137.328491,85.5265086 127.568362,75.2803017 C117.808233,65.0340948 110.23931,52.0951724 97.3081034,53.8003017 C84.3768966,55.505431 68.5060776,56.2384052 61.6778448,62.3413793 C54.8496121,68.4443534 44.1327586,98.465431 44.1327586,98.465431 Z" id="Path" fill="#000000" opacity="0.1"></path>
                <path d="M44.1327586,97.9793534 C44.1327586,97.9793534 68.2977586,95.0474569 86.5681034,71.6231466 C86.5681034,71.6231466 110.733103,98.22625 127.568362,95.2943534 C127.568362,95.2943534 137.328491,85.040431 127.568362,74.7942241 C117.808233,64.5480172 110.23931,51.6090948 97.3081034,53.3142241 C84.3768966,55.0193534 68.5369397,55.7214655 61.7087069,61.8938793 C54.8804741,68.0662931 44.1327586,97.9793534 44.1327586,97.9793534 Z" id="Path" fill="#333333"></path>
                <ellipse id="Oval" fill="#FDA57D" cx="50.0351293" cy="95.8961638" rx="3.61086207" ry="6.76650862"></ellipse>
                <ellipse id="Oval" fill="#FDA57D" cx="127.645517" cy="95.8961638" rx="3.61086207" ry="6.76650862"></ellipse>
            </g>
        </g>
    </g>
</svg>