<?xml version="1.0" encoding="UTF-8"?>
<svg width="180px" height="180px" viewBox="0 0 180 180" version="1.1" xmlns="http://www.w3.org/2000/svg" xmlns:xlink="http://www.w3.org/1999/xlink">
    <!-- Generator: Sketch 59.1 (86144) - https://sketch.com -->
    <title>Avatar1</title>
    <desc>Created with Sketch.</desc>
    <defs>
        <linearGradient x1="50%" y1="99.9956856%" x2="50%" y2="0%" id="linearGradient-1">
            <stop stop-color="#808080" stop-opacity="0.25" offset="0%"></stop>
            <stop stop-color="#808080" stop-opacity="0.12" offset="54%"></stop>
            <stop stop-color="#808080" stop-opacity="0.1" offset="100%"></stop>
        </linearGradient>
    </defs>
    <g id="Page-1" stroke="none" stroke-width="1" fill="none" fill-rule="evenodd">
        <g id="Desktop-Copy" transform="translate(-58.000000, -563.000000)" fill-rule="nonzero">
            <g id="Avatar1" transform="translate(58.000000, 563.000000)">
                <g id="Group" opacity="0.5" fill="url(#linearGradient-1)">
                    <circle id="Oval" cx="89.7914163" cy="89.5287554" r="89.5287554"></circle>
                </g>
                <circle id="Oval" fill="#F5F5F5" cx="89.9613734" cy="88.9493562" r="87.6360515"></circle>
                <path d="M90.0386266,176.940891 C107.163918,176.968949 123.918646,171.955427 138.213734,162.525322 C134.976824,144.872961 122.693562,143.860944 122.693562,143.860944 L54.9347639,143.860944 C54.9347639,143.860944 43.3467811,144.811159 39.7158798,161.049785 C54.4472079,171.415196 72.0260447,176.966265 90.0386266,176.940891 Z" id="Path" fill="#7BAD2C"></path>
                <circle id="Oval" fill="#72351C" cx="89.1193133" cy="87.1030043" r="42.3038627"></circle>
                <path d="M75.4609442,122.338197 L102.569119,122.338197 L102.569119,144.023176 C102.575252,147.62093 101.150361,151.073437 98.608536,153.61961 C96.0667106,156.165783 92.6166436,157.596567 89.0188841,157.596567 L89.0188841,157.596567 C81.5353072,157.596567 75.4686695,151.529929 75.4686695,144.046352 L75.4686695,122.338197 L75.4609442,122.338197 Z" id="Path" fill="#000000" opacity="0.1"></path>
                <path d="M78.0257511,121.333906 L99.9579399,121.333906 C101.387243,121.333906 102.545923,122.492585 102.545923,123.921888 L102.545923,143.018884 C102.545923,150.502461 96.479285,156.569099 88.9957082,156.569099 L88.9957082,156.569099 C81.5121313,156.569099 75.4454936,150.502461 75.4454936,143.018884 L75.4454936,123.921888 C75.4454936,122.492585 76.6041729,121.333906 78.0334764,121.333906 L78.0257511,121.333906 Z" id="Path" fill="#FDA57D"></path>
                <path d="M75.4918455,132.574249 C84.2281735,135.839466 93.8452035,135.866872 102.6,132.651502 L102.6,129.321888 L75.4918455,129.321888 L75.4918455,132.574249 Z" id="Path" fill="#000000" opacity="0.1"></path>
                <circle id="Oval" fill="#FDA57D" cx="89.1193133" cy="95.5390558" r="38.8506438"></circle>
                <path d="M61.4472103,60.2034335 C61.4472103,60.2034335 77.8171674,93.4223176 124.022318,74.1090129 L113.26867,57.2446352 L94.2103004,50.4 L61.4472103,60.2034335 Z" id="Path" fill="#000000" opacity="0.1"></path>
                <path d="M61.4472103,59.7167382 C61.4472103,59.7167382 77.8171674,92.9356223 124.022318,73.6223176 L113.26867,56.7579399 L94.2103004,49.9133047 L61.4472103,59.7167382 Z" id="Path" fill="#72351C"></path>
                <path d="M61.3004292,57.4686695 C62.4040784,54.0516531 64.311556,50.9493527 66.8626609,48.4223176 C74.5030043,40.8669528 87.0334764,39.2755365 93.4609442,30.6540773 C94.1671624,31.8879716 94.3181395,33.3631274 93.8765146,34.7144996 C93.4348897,36.0658718 92.4419272,37.167191 91.1433476,37.7459227 C97.3236052,37.7072961 104.438627,37.1665236 107.915021,32.0987124 C109.671157,36.1862808 108.916331,40.9197345 105.975966,44.2583691 C111.430043,44.5055794 117.254936,48.2060086 117.6103,53.6600858 C117.84206,57.2909871 115.570815,60.7287554 112.581116,62.8145923 C109.591416,64.9004292 105.991416,65.8351931 102.437768,66.6077253 C92.0703863,68.9253219 54.5330472,78.5124464 61.3004292,57.4686695 Z" id="Path" fill="#72351C"></path>
                <path d="M127.969957,95.87897 L126.942489,95.87897 L106.903004,113.732189 C87.5896996,104.693562 73.4214592,113.732189 73.4214592,113.732189 L52.4085837,96.6283262 L50.2918455,96.8909871 C50.888146,118.107912 68.401939,134.91923 89.6254959,134.64697 C110.849053,134.374711 127.925837,117.11966 127.977682,95.8944206 L127.969957,95.87897 Z M89.0652361,120.561373 C81.5098712,120.561373 75.383691,119.016309 75.383691,117.139056 C75.383691,115.261803 81.5098712,113.716738 89.0652361,113.716738 C96.6206009,113.716738 102.746781,115.261803 102.746781,117.139056 C102.746781,119.016309 96.6206009,120.561373 89.0575107,120.561373 L89.0652361,120.561373 Z" id="Shape" fill="#72351C"></path>
                <ellipse id="Oval" fill="#FDA57D" cx="50.2532189" cy="95.5004292" rx="3.61545064" ry="6.7751073"></ellipse>
                <ellipse id="Oval" fill="#FDA57D" cx="127.962232" cy="95.5004292" rx="3.61545064" ry="6.7751073"></ellipse>
            </g>
        </g>
    </g>
</svg>