<?xml version="1.0" encoding="UTF-8"?>
<svg width="180px" height="180px" viewBox="0 0 180 180" version="1.1" xmlns="http://www.w3.org/2000/svg" xmlns:xlink="http://www.w3.org/1999/xlink">
    <!-- Generator: Sketch 59.1 (86144) - https://sketch.com -->
    <title>Avatar2</title>
    <desc>Created with Sketch.</desc>
    <defs>
        <linearGradient x1="50%" y1="100%" x2="50%" y2="0.0043144361%" id="linearGradient-1">
            <stop stop-color="#808080" stop-opacity="0.25" offset="0%"></stop>
            <stop stop-color="#808080" stop-opacity="0.12" offset="54%"></stop>
            <stop stop-color="#808080" stop-opacity="0.1" offset="100%"></stop>
        </linearGradient>
    </defs>
    <g id="Page-1" stroke="none" stroke-width="1" fill="none" fill-rule="evenodd">
        <g id="Desktop-Copy" transform="translate(-279.000000, -563.000000)" fill-rule="nonzero">
            <g id="Avatar2" transform="translate(279.000000, 563.000000)">
                <g id="Group" opacity="0.5" fill="url(#linearGradient-1)">
                    <circle id="Oval" cx="90.1699571" cy="89.6832618" r="89.5287554"></circle>
                </g>
                <circle id="Oval" fill="#F5F5F5" cx="90.1699571" cy="89.1965665" r="87.6360515"></circle>
                <path d="M90.4171674,177.079946 C107.542459,177.108005 124.297187,172.094483 138.592275,162.664378 C135.36309,145.019742 123.072103,144.007725 123.072103,144.007725 L55.3133047,144.007725 C55.3133047,144.007725 43.7253219,144.95794 40.0944206,161.196567 C54.8266593,171.559235 72.4054217,177.107582 90.4171674,177.079946 L90.4171674,177.079946 Z" id="Path" fill="#7BAD2C"></path>
                <circle id="Oval" fill="#333333" cx="89.4978541" cy="87.2652361" r="38.8506438"></circle>
                <path d="M75.8472103,122.500429 L102.955365,122.500429 L102.955365,144.185408 C102.955365,151.668985 96.8887271,157.735622 89.4051502,157.735622 L89.4051502,157.735622 C81.9215733,157.735622 75.8549356,151.668985 75.8549356,144.185408 L75.8549356,122.500429 L75.8472103,122.500429 Z" id="Path" fill="#000000" opacity="0.1"></path>
                <path d="M78.4351931,121.496137 L100.367382,121.496137 C101.796685,121.496137 102.955365,122.654817 102.955365,124.08412 L102.955365,143.181116 C102.955365,150.664693 96.8887271,156.73133 89.4051502,156.73133 L89.4051502,156.73133 C81.9215733,156.73133 75.8549356,150.664693 75.8549356,143.181116 L75.8549356,124.08412 C75.8549356,122.657828 77.0089075,121.500395 78.4351931,121.496137 Z" id="Path" fill="#BE7C5E"></path>
                <path d="M75.9012876,132.736481 C84.6376156,136.001697 94.2546455,136.029104 103.009442,132.813734 L103.009442,129.48412 L75.9012876,129.48412 L75.9012876,132.736481 Z" id="Path" fill="#000000" opacity="0.1"></path>
                <circle id="Oval" fill="#BE7C5E" cx="89.4978541" cy="95.7012876" r="38.8506438"></circle>
                <path d="M65.9587983,79.67897 C66.4145923,78.0025751 66.9862661,76.1562232 68.4927039,75.2832618 C69.6824034,74.5879828 71.1579399,74.6961373 72.5330472,74.7656652 C83.2712446,75.3527897 93.9167382,72.9038627 104.361373,70.3467811 C110.333047,68.8866953 116.721888,67.1098712 120.584549,62.2969957 C124.44721,57.4841202 119.4103,42.3579399 113.53133,40.5733906 C109.66867,39.3914163 105.187983,41.593133 101.52618,39.8626609 C99.8961373,39.0901288 98.6987124,37.6454936 97.2927039,36.5175966 C94.4111588,34.2 90.7107296,33.2652361 87.1261803,32.3845494 C82.9390558,31.3493562 78.4120172,30.3373391 74.4334764,31.9982833 C71.3433476,33.2806867 69.0875536,35.9922747 66.1596567,37.5991416 C60.5896996,40.6892704 53.7991416,39.2523605 47.4180258,39.2369099 C45.2626609,39.2369099 42.6901288,39.6695279 41.832618,41.6472103 C41.2532189,42.9914163 41.7167382,44.52103 41.7785408,45.9811159 C41.9639485,50.616309 38.1399142,54.2240343 34.9339056,57.5690987 C31.727897,60.9141631 28.6995708,65.688412 30.7236052,69.8446352 C31.4961373,71.4283262 32.9098712,72.6257511 33.7133047,74.1939914 C35.0961373,76.9133047 34.4008584,80.1965665 34.9030043,83.2017167 C35.4057739,85.4820174 36.257888,87.6709345 37.4291845,89.6909871 C39.8085837,94.3261803 51.7596567,119.27897 57.2523605,112.936481 C59.9098712,109.846352 60.3424893,100.91588 61.416309,96.8987124 C62.8995708,91.1253219 64.4137339,85.3854077 65.9587983,79.67897 Z" id="Path" fill="#333333"></path>
                <ellipse id="Oval" fill="#BE7C5E" cx="61.8566524" cy="94.2875536" rx="3.61545064" ry="6.7751073"></ellipse>
            </g>
        </g>
    </g>
</svg>