<?xml version="1.0" encoding="UTF-8"?>
<svg width="179px" height="180px" viewBox="0 0 179 180" version="1.1" xmlns="http://www.w3.org/2000/svg" xmlns:xlink="http://www.w3.org/1999/xlink">
    <!-- Generator: Sketch 59.1 (86144) - https://sketch.com -->
    <title>Avatar5</title>
    <desc>Created with Sketch.</desc>
    <defs>
        <linearGradient x1="50%" y1="100%" x2="50%" y2="0.0043144361%" id="linearGradient-1">
            <stop stop-color="#808080" stop-opacity="0.25" offset="0%"></stop>
            <stop stop-color="#808080" stop-opacity="0.12" offset="54%"></stop>
            <stop stop-color="#808080" stop-opacity="0.1" offset="100%"></stop>
        </linearGradient>
    </defs>
    <g id="Page-1" stroke="none" stroke-width="1" fill="none" fill-rule="evenodd">
        <g id="Desktop-Copy" transform="translate(-511.000000, -1521.000000)" fill-rule="nonzero">
            <g id="Avatar5" transform="translate(511.000000, 1521.000000)">
                <g id="Group" opacity="0.5" fill="url(#linearGradient-1)">
                    <circle id="Oval" cx="89.5617241" cy="89.7468966" r="89.4151293"></circle>
                </g>
                <circle id="Oval" fill="#F5F5F5" cx="89.7314655" cy="89.1759483" r="87.5248276"></circle>
                <path d="M89.8086207,177.04809 C106.901672,177.070056 123.623548,172.063153 137.891724,162.650819 C134.666638,145.028578 122.39125,144.017845 122.39125,144.017845 L54.7415948,144.017845 C54.7415948,144.017845 43.168319,144.966853 39.5420259,161.184871 C54.2577196,171.535907 71.8171024,177.077287 89.8086207,177.04809 Z" id="Path" fill="#7BAD2C"></path>
                <circle id="Oval" fill="#F55F44" cx="88.8827586" cy="87.3319397" r="42.2501724"></circle>
                <path d="M75.2494397,122.522414 L102.32319,122.522414 L102.32319,144.179871 C102.32319,151.65395 96.2642515,157.712888 88.7901724,157.712888 L88.7901724,157.712888 C81.3160934,157.712888 75.2571552,151.65395 75.2571552,144.179871 L75.2571552,122.522414 L75.2494397,122.522414 Z" id="Path" fill="#000000" opacity="0.1"></path>
                <path d="M77.8341379,121.519397 L99.7384914,121.519397 C100.423996,121.519397 101.081424,121.791712 101.566149,122.276437 C102.050874,122.761162 102.32319,123.41859 102.32319,124.104095 L102.32319,143.176853 C102.32319,146.766033 100.897394,150.208209 98.3594607,152.746142 C95.8215276,155.284075 92.3793517,156.709871 88.7901724,156.709871 L88.7901724,156.709871 C85.2009931,156.709871 81.7588172,155.284075 79.2208842,152.746142 C76.6829511,150.208209 75.2571552,146.766033 75.2571552,143.176853 L75.2571552,124.104095 C75.2571552,122.676605 76.414364,121.519397 77.8418534,121.519397 L77.8341379,121.519397 Z" id="Path" fill="#FDA57D"></path>
                <path d="M75.3034483,132.745474 C84.0286886,136.006547 93.633513,136.033919 102.377198,132.822629 L102.377198,129.497241 L75.3034483,129.497241 L75.3034483,132.745474 Z" id="Path" fill="#000000" opacity="0.1"></path>
                <circle id="Oval" fill="#FDA57D" cx="88.8827586" cy="95.7572845" r="38.8013362"></circle>
                <circle id="Oval" fill="#F55F44" cx="88.82875" cy="44.3565086" r="15.6162069"></circle>
                <circle id="Oval" fill="#F55F44" cx="88.82875" cy="28.9794828" r="10.2539224"></circle>
                <path d="M82.0545259,52.9207328 C74.4438966,49.5068903 70.8597288,40.7146378 73.9146552,32.9529741 C73.8066379,33.1690086 73.6986207,33.3927586 73.598319,33.6165086 C71.3145679,38.7077435 71.9204364,44.6306052 75.1876996,49.1540091 C78.4549628,53.6774129 83.8872458,56.1141462 89.4382601,55.5463152 C94.9892743,54.9784841 99.8156887,51.4923556 102.09944,46.4011207 C102.199741,46.1773707 102.292328,45.9536207 102.384914,45.7221552 C98.6192709,53.1674356 89.6662108,56.3375324 82.0545259,52.9207328 Z" id="Path" fill="#F55F44"></path>
                <path d="M61.2534914,60.4665086 C61.2534914,60.4665086 77.6026724,93.6432328 123.749181,74.3544397 L113.009181,57.5114655 L93.975,50.6755172 L61.2534914,60.4665086 Z" id="Path" fill="#000000" opacity="0.1"></path>
                <path d="M61.2534914,59.9727155 C61.2534914,59.9727155 77.6026724,93.1494397 123.749181,73.8606466 L113.009181,57.0176724 L93.975,50.1817241 L61.2534914,59.9727155 Z" id="Path" fill="#F55F44"></path>
                <path d="M73.852931,47.8902155 C83.9138621,47.0989316 94.0213965,47.0989316 104.082328,47.8902155 C104.082328,47.8902155 81.7536207,49.9656897 73.852931,47.8902155 Z" id="Path" fill="#333333"></path>
                <path d="M91.1742672,18.1006034 C90.3984896,18.0721448 89.6219852,18.1316768 88.8596121,18.2780603 L89.4537069,18.2780603 C94.6831999,18.4453452 98.9465979,22.5258343 99.3428865,27.7429731 C99.739175,32.9601118 96.1410358,37.6377553 90.9968103,38.5930172 C96.655634,38.6441509 101.284469,34.0982202 101.335603,28.4393965 C101.386737,22.7805729 96.8408064,18.1517376 91.1819828,18.1006034 L91.1742672,18.1006034 Z" id="Path" fill="#F55F44"></path>
                <ellipse id="Oval" fill="#FDA57D" cx="50.0737069" cy="95.7187069" rx="3.61086207" ry="6.76650862"></ellipse>
                <ellipse id="Oval" fill="#FDA57D" cx="127.684095" cy="95.7187069" rx="3.61086207" ry="6.76650862"></ellipse>
                <polygon id="Path" fill="#F55F44" points="58.8076724 60.9525862 66.3765948 57.0485345 68.0817241 63.305819 63.4446983 66.4614655"></polygon>
            </g>
        </g>
    </g>
</svg>