<?xml version="1.0" encoding="UTF-8"?>
<svg width="179px" height="180px" viewBox="0 0 179 180" version="1.1" xmlns="http://www.w3.org/2000/svg" xmlns:xlink="http://www.w3.org/1999/xlink">
    <!-- Generator: Sketch 59.1 (86144) - https://sketch.com -->
    <title>Avatar3</title>
    <desc>Created with Sketch.</desc>
    <defs>
        <linearGradient x1="50%" y1="100%" x2="50%" y2="0.0043144361%" id="linearGradient-1">
            <stop stop-color="#808080" stop-opacity="0.25" offset="0%"></stop>
            <stop stop-color="#808080" stop-opacity="0.12" offset="54%"></stop>
            <stop stop-color="#808080" stop-opacity="0.1" offset="100%"></stop>
        </linearGradient>
    </defs>
    <g id="Page-1" stroke="none" stroke-width="1" fill="none" fill-rule="evenodd">
        <g id="Desktop-Copy" transform="translate(-520.000000, -558.000000)" fill-rule="nonzero">
            <g id="Avatar3" transform="translate(520.000000, 558.000000)">
                <g id="Group" opacity="0.5" fill="url(#linearGradient-1)">
                    <circle id="Oval" cx="89.4151293" cy="90.0632328" r="89.4151293"></circle>
                </g>
                <circle id="Oval" fill="#F5F5F5" cx="89.5848707" cy="89.4922845" r="87.5248276"></circle>
                <path d="M89.6620259,177.364482 C106.762957,177.390936 123.493523,172.383841 137.768276,162.967155 C134.54319,145.344914 122.267802,144.334181 122.267802,144.334181 L54.5641379,144.334181 C54.5641379,144.334181 42.9908621,145.28319 39.364569,161.501207 C54.0888724,171.858323 71.6599788,177.400001 89.6620259,177.364482 L89.6620259,177.364482 Z" id="Path" fill="#7BAD2C"></path>
                <circle id="Oval" fill="#333333" cx="88.7361638" cy="87.6482759" r="42.2501724"></circle>
                <path d="M75.1028448,122.83875 L102.176595,122.83875 L102.176595,144.496207 C102.176595,151.970286 96.1176566,158.029224 88.6435776,158.029224 L88.6435776,158.029224 C85.0543983,158.029224 81.6122224,156.603428 79.0742893,154.065495 C76.5363563,151.527562 75.1105603,148.085386 75.1105603,144.496207 L75.1105603,122.83875 L75.1028448,122.83875 Z" id="Path" fill="#000000" opacity="0.1"></path>
                <path d="M77.6875431,121.835733 L99.5918966,121.835733 C101.019386,121.835733 102.176595,122.992942 102.176595,124.420431 L102.176595,143.508621 C102.176595,150.9827 96.1176566,157.04164 88.6435776,157.04164 L88.6435776,157.04164 C85.0530616,157.043685 81.6089033,155.618793 79.0693013,153.080638 C76.5296993,150.542483 75.1028448,147.099137 75.1028448,143.508621 L75.1028448,124.412716 C75.1028448,122.985226 76.2600537,121.828017 77.6875431,121.828017 L77.6875431,121.835733 Z" id="Path" fill="#FDB797"></path>
                <path d="M75.1568534,133.06181 C83.8820937,136.322883 93.4869181,136.350255 102.230603,133.138966 L102.230603,129.790431 L75.1568534,129.790431 L75.1568534,133.06181 Z" id="Path" fill="#000000" opacity="0.1"></path>
                <circle id="Oval" fill="#FDB797" cx="88.7361638" cy="96.0736207" r="38.8013362"></circle>
                <path d="M61.1068966,60.7751293 C61.1068966,60.7751293 77.4560776,93.9518534 123.602586,74.6630603 L112.862586,57.8200862 L93.8284052,50.9841379 L61.1068966,60.7751293 Z" id="Path" fill="#000000" opacity="0.1"></path>
                <path d="M61.1068966,60.2890517 C61.1068966,60.2890517 77.4560776,93.4657759 123.602586,74.1769828 L112.862586,57.3340086 L93.8284052,50.4980603 L61.1068966,60.2890517 Z" id="Path" fill="#333333"></path>
                <path d="M60.9603017,58.0361207 C62.0625502,54.6234409 63.9676069,51.5250779 66.5154741,49.00125 C74.1461207,41.4554741 86.6606897,39.8660776 93.08,31.2555603 C93.7853218,32.4878887 93.9361074,33.9611723 93.495043,35.3108294 C93.0539786,36.6604865 92.0622763,37.760408 90.7653448,38.3384052 C96.9377586,38.2998276 104.04375,37.7597414 107.515733,32.6983621 C109.26964,36.7807427 108.515771,41.5081889 105.579138,44.8425862 C111.026293,45.0894828 116.843793,48.7852155 117.198707,54.2323707 C117.430172,57.8586638 115.16181,61.292069 112.175905,63.3752586 C109.19,65.4584483 105.586853,66.4074569 102.037716,67.1944397 C91.6834914,69.4936638 54.2015086,79.0686207 60.9603017,58.0361207 Z" id="Path" fill="#333333"></path>
                <ellipse id="Oval" fill="#FDB797" cx="49.9193966" cy="96.0350431" rx="3.61086207" ry="6.76650862"></ellipse>
                <ellipse id="Oval" fill="#FDB797" cx="127.529784" cy="96.0350431" rx="3.61086207" ry="6.76650862"></ellipse>
            </g>
        </g>
    </g>
</svg>